<svg id="Layer_3" data-name="Layer 3" xmlns="http://www.w3.org/2000/svg" viewBox="0 0 224.99 62.22"><defs><style>.cls-1{fill:#522e91;}</style></defs><title>merck-lg-logo</title><path class="cls-1" d="M54.47,60.08H50.83V36.48L43.21,52.54H41L33.48,36.48v23.6h-3.4V32.69h5l7.3,15.25,7.06-15.25h5.06Z" transform="translate(-30.08 -31.46)"/><path class="cls-1" d="M78.76,50.17H63.61a8.76,8.76,0,0,0,.58,3.3A6.06,6.06,0,0,0,68,57.1a8.91,8.91,0,0,0,2.9.44,11.4,11.4,0,0,0,4.22-.83,10.4,10.4,0,0,0,3-1.65h.18v3.77a27.85,27.85,0,0,1-3.57,1.23,14.49,14.49,0,0,1-3.82.5c-3.41,0-6.08-.92-8-2.77s-2.87-4.47-2.87-7.86a11.3,11.3,0,0,1,2.75-8,9.42,9.42,0,0,1,7.24-3,8.31,8.31,0,0,1,6.41,2.43c1.5,1.62,2.26,3.92,2.26,6.9Zm-3.37-2.65A6.09,6.09,0,0,0,74,43.31a5.25,5.25,0,0,0-4.11-1.5,6,6,0,0,0-4.43,1.64,6.42,6.42,0,0,0-1.87,4.07Z" transform="translate(-30.08 -31.46)"/><path class="cls-1" d="M96.82,43.31h-.18a10.81,10.81,0,0,0-1.5-.27A14.5,14.5,0,0,0,93.42,43a7.12,7.12,0,0,0-3.09.7,14.77,14.77,0,0,0-2.87,1.83V60.08H84V39.53h3.46v3a17,17,0,0,1,3.63-2.35,7.93,7.93,0,0,1,3.21-.69,13,13,0,0,1,1.31,0c.27,0,.67.09,1.21.18Z" transform="translate(-30.08 -31.46)"/><path class="cls-1" d="M115.27,58.79A20.53,20.53,0,0,1,112,60.08a11.49,11.49,0,0,1-3.3.46,12.14,12.14,0,0,1-4.09-.65,8.28,8.28,0,0,1-3.18-2,8.92,8.92,0,0,1-2.08-3.35,13.77,13.77,0,0,1-.73-4.72q0-5,2.76-7.91a9.7,9.7,0,0,1,7.32-2.88,12.32,12.32,0,0,1,3.46.5,17.63,17.63,0,0,1,3.12,1.22v3.84h-.18a13.12,13.12,0,0,0-3.27-1.89,8.74,8.74,0,0,0-3.28-.67,5.83,5.83,0,0,0-4.65,2,8.72,8.72,0,0,0-1.7,5.81,8.7,8.7,0,0,0,1.67,5.71,5.76,5.76,0,0,0,4.68,2,8.76,8.76,0,0,0,2.13-.27,8.59,8.59,0,0,0,2-.72,14.7,14.7,0,0,0,1.42-.82c.44-.29.79-.53,1-.74h.18Z" transform="translate(-30.08 -31.46)"/><path class="cls-1" d="M138.36,60.08H133.8l-8.24-9-2.25,2.13v6.86h-3.46V31.46h3.46V49.82l10-10.29h4.36L128.11,49Z" transform="translate(-30.08 -31.46)"/><path class="cls-1" d="M177.55,60.08h-4.73L162,47.89l-2.72,2.9v9.29h-3.64V32.69h3.64V47l13.3-14.29H177L164.74,45.57Z" transform="translate(-30.08 -31.46)"/><path class="cls-1" d="M204.48,58.06a34.68,34.68,0,0,1-4.9,1.79,18.68,18.68,0,0,1-11-.12A12.15,12.15,0,0,1,184,57.09a11.82,11.82,0,0,1-2.92-4.47,17.29,17.29,0,0,1-1-6.26q0-6.57,3.83-10.37t10.53-3.8a21,21,0,0,1,4.78.57,25.35,25.35,0,0,1,5.25,1.9V39h-.33c-.38-.29-.93-.68-1.66-1.16a16.38,16.38,0,0,0-2.13-1.19,15.94,15.94,0,0,0-2.88-1,16.11,16.11,0,0,0-3.65-.38,9.37,9.37,0,0,0-7.28,3,11.49,11.49,0,0,0-2.67,8q0,5.31,2.79,8.27a10,10,0,0,0,7.62,2.95,18.27,18.27,0,0,0,3.52-.35,15.9,15.9,0,0,0,3.08-.9V49.51h-7.34V46.3h10.95Z" transform="translate(-30.08 -31.46)"/><path class="cls-1" d="M226.54,60.08H223.1V57.89c-.31.21-.72.5-1.24.88a9.47,9.47,0,0,1-1.52.89,10.49,10.49,0,0,1-2,.71,10.82,10.82,0,0,1-2.63.28A6.57,6.57,0,0,1,211,58.81a6.18,6.18,0,0,1-1.93-4.69,6.5,6.5,0,0,1,1-3.78,6.7,6.7,0,0,1,2.86-2.27A15.26,15.26,0,0,1,217.45,47c1.75-.2,3.63-.34,5.65-.44V46a4.08,4.08,0,0,0-.42-1.95,3,3,0,0,0-1.18-1.21,5,5,0,0,0-1.77-.57,14.91,14.91,0,0,0-2.15-.15,14.61,14.61,0,0,0-3,.36,24.45,24.45,0,0,0-3.46,1h-.18V40c.67-.19,1.65-.39,2.92-.61A22.29,22.29,0,0,1,217.6,39a18.29,18.29,0,0,1,3.78.35,7.42,7.42,0,0,1,2.78,1.23,5.36,5.36,0,0,1,1.77,2.19,8.12,8.12,0,0,1,.61,3.33ZM223.1,55V49.3c-1.06.06-2.3.16-3.73.28a19.22,19.22,0,0,0-3.39.53,5.45,5.45,0,0,0-2.41,1.32,3.22,3.22,0,0,0-.92,2.45,3.26,3.26,0,0,0,1.06,2.66,5,5,0,0,0,3.26.89,7.76,7.76,0,0,0,3.33-.7A15,15,0,0,0,223.1,55Z" transform="translate(-30.08 -31.46)"/><path class="cls-1" d="M255.07,60.08h-3.88l-2.69-7.63H236.65L234,60.08h-3.7l10-27.39h4.86Zm-7.69-10.76-4.8-13.45-4.82,13.45Z" transform="translate(-30.08 -31.46)"/><path class="cls-1" d="M43.24,81.59a8,8,0,0,1-.92,3.85,7,7,0,0,1-2.47,2.68,7.47,7.47,0,0,1-2.38.95,16.15,16.15,0,0,1-3.46.29H30.08V73.78H34a15.9,15.9,0,0,1,3.63.33,8,8,0,0,1,2.27.9,7,7,0,0,1,2.48,2.65A8.09,8.09,0,0,1,43.24,81.59Zm-2.16,0a6.7,6.7,0,0,0-.64-3.09,4.67,4.67,0,0,0-1.91-2,6.47,6.47,0,0,0-2-.73,13.59,13.59,0,0,0-2.48-.2h-2v12h2a13.4,13.4,0,0,0,2.61-.23,5.86,5.86,0,0,0,2-.81,4.72,4.72,0,0,0,1.75-2A7.12,7.12,0,0,0,41.08,81.56Z" transform="translate(-30.08 -31.46)"/><path class="cls-1" d="M55.52,89.36h-2V88.12l-.7.49a4.45,4.45,0,0,1-.87.51,5.7,5.7,0,0,1-1.13.41,6.47,6.47,0,0,1-1.49.16,3.72,3.72,0,0,1-2.68-1A3.51,3.51,0,0,1,45.59,86a3.41,3.41,0,0,1,2.2-3.44,8.79,8.79,0,0,1,2.56-.64c1-.11,2.07-.19,3.21-.25v-.3a2.41,2.41,0,0,0-.23-1.11,1.62,1.62,0,0,0-.68-.69,2.87,2.87,0,0,0-1-.33,9.65,9.65,0,0,0-1.23-.08,8.66,8.66,0,0,0-1.72.2,13.63,13.63,0,0,0-2,.59h-.11v-2c.39-.1.94-.21,1.67-.34a12.07,12.07,0,0,1,2.14-.19,10.52,10.52,0,0,1,2.16.2,4.21,4.21,0,0,1,1.58.7,3.07,3.07,0,0,1,1,1.25,4.43,4.43,0,0,1,.35,1.89Zm-2-2.87V83.23l-2.12.16a11.41,11.41,0,0,0-1.93.3,3.18,3.18,0,0,0-1.37.75,2.16,2.16,0,0,0,.09,2.91,2.82,2.82,0,0,0,1.85.51A4.36,4.36,0,0,0,52,87.45,8.51,8.51,0,0,0,53.56,86.49Z" transform="translate(-30.08 -31.46)"/><path class="cls-1" d="M66.6,79.82h-.1a6.75,6.75,0,0,0-.86-.15,6.94,6.94,0,0,0-1,0,4,4,0,0,0-1.76.4,7.78,7.78,0,0,0-1.63,1v8.29h-2V77.67h2V79.4a10.08,10.08,0,0,1,2.06-1.34,4.56,4.56,0,0,1,1.83-.39,6.37,6.37,0,0,1,.74,0l.69.1Z" transform="translate(-30.08 -31.46)"/><path class="cls-1" d="M85.52,89.36h-2V82.71c0-.51,0-1-.07-1.46a3.08,3.08,0,0,0-.29-1.12,1.62,1.62,0,0,0-.69-.68,3,3,0,0,0-1.3-.23,3.72,3.72,0,0,0-1.65.41,10.17,10.17,0,0,0-1.65,1.06c0,.16,0,.34,0,.56s0,.42,0,.63v7.48H76V82.71a13.67,13.67,0,0,0-.07-1.47,3.1,3.1,0,0,0-.28-1.12,1.54,1.54,0,0,0-.69-.67,3,3,0,0,0-1.3-.23,3.59,3.59,0,0,0-1.62.4,9.64,9.64,0,0,0-1.62,1v8.72h-2V77.67h2V79a8.54,8.54,0,0,1,1.84-1.19,4.48,4.48,0,0,1,1.95-.43,3.82,3.82,0,0,1,2,.5,3.15,3.15,0,0,1,1.24,1.39,9.84,9.84,0,0,1,2.17-1.45,5.18,5.18,0,0,1,2.11-.44,3.39,3.39,0,0,1,2.84,1.17,5.13,5.13,0,0,1,.92,3.25Z" transform="translate(-30.08 -31.46)"/><path class="cls-1" d="M97.66,86a3.19,3.19,0,0,1-1.33,2.62,5.7,5.7,0,0,1-3.61,1,8.85,8.85,0,0,1-2.38-.31,10.31,10.31,0,0,1-1.82-.68V86.45h.1a8.17,8.17,0,0,0,2.08,1.12,6.54,6.54,0,0,0,2.18.41,4.07,4.07,0,0,0,2-.42,1.4,1.4,0,0,0,.74-1.31,1.35,1.35,0,0,0-.4-1,3.64,3.64,0,0,0-1.53-.61l-1.09-.22q-.67-.12-1.23-.27a4,4,0,0,1-2.18-1.2A3,3,0,0,1,88.57,81a3.14,3.14,0,0,1,.3-1.36,3.25,3.25,0,0,1,.9-1.14,4.34,4.34,0,0,1,1.5-.78,6.7,6.7,0,0,1,2-.29,9.11,9.11,0,0,1,2.12.26,7.74,7.74,0,0,1,1.79.62v2.1h-.11a7.12,7.12,0,0,0-1.83-.93,6.18,6.18,0,0,0-2.11-.39,3.7,3.7,0,0,0-1.83.42A1.45,1.45,0,0,0,91,81.79a3.53,3.53,0,0,0,1.42.59c.37.09.77.17,1.22.26s.83.15,1.13.23a4.07,4.07,0,0,1,2.11,1.07A2.84,2.84,0,0,1,97.66,86Z" transform="translate(-30.08 -31.46)"/><path class="cls-1" d="M106.54,89.26a9.59,9.59,0,0,1-1.21.24,8.52,8.52,0,0,1-1.16.09,3.65,3.65,0,0,1-2.73-1,4.33,4.33,0,0,1-.93-3.09V79.33H99.18V77.67h1.33V74.31h2v3.36h4.06v1.66h-4.06v5.33c0,.61,0,1.09,0,1.43a2.49,2.49,0,0,0,.29,1,1.39,1.39,0,0,0,.64.61,3,3,0,0,0,1.23.2,3.62,3.62,0,0,0,1-.15,5.68,5.68,0,0,0,.76-.23h.1Z" transform="translate(-30.08 -31.46)"/><path class="cls-1" d="M118,89.36h-2V88.12l-.7.49a4.71,4.71,0,0,1-.86.51,6,6,0,0,1-1.14.41,6.47,6.47,0,0,1-1.49.16,3.72,3.72,0,0,1-2.68-1,3.54,3.54,0,0,1-1.1-2.67,3.41,3.41,0,0,1,2.2-3.44,8.87,8.87,0,0,1,2.56-.64c1-.11,2.07-.19,3.21-.25v-.3a2.29,2.29,0,0,0-.23-1.11,1.65,1.65,0,0,0-.67-.69,2.93,2.93,0,0,0-1-.33,9.62,9.62,0,0,0-1.22-.08,8.67,8.67,0,0,0-1.73.2,13.63,13.63,0,0,0-2,.59h-.1v-2c.38-.1.93-.21,1.66-.34a12.18,12.18,0,0,1,2.15-.19,10.42,10.42,0,0,1,2.15.2,4.14,4.14,0,0,1,1.58.7,3.1,3.1,0,0,1,1,1.25,4.6,4.6,0,0,1,.34,1.89Zm-2-2.87V83.23l-2.11.16a11.39,11.39,0,0,0-1.94.3,3.18,3.18,0,0,0-1.37.75,2.16,2.16,0,0,0,.09,2.91,2.82,2.82,0,0,0,1.85.51,4.36,4.36,0,0,0,1.89-.41A7.91,7.91,0,0,0,116,86.49Z" transform="translate(-30.08 -31.46)"/><path class="cls-1" d="M131.27,89.36h-2V88.14a7,7,0,0,1-1.76,1.14,4.93,4.93,0,0,1-2,.41,4,4,0,0,1-3.33-1.61A7.24,7.24,0,0,1,121,83.61a7.79,7.79,0,0,1,.43-2.65,6.09,6.09,0,0,1,1.14-2,4.9,4.9,0,0,1,1.66-1.21,4.85,4.85,0,0,1,2-.42,6.24,6.24,0,0,1,1.63.19,7.74,7.74,0,0,1,1.49.6V73.08h2Zm-2-2.87V79.78a7.88,7.88,0,0,0-1.42-.5,7.24,7.24,0,0,0-1.37-.13,3.09,3.09,0,0,0-2.57,1.15,5.09,5.09,0,0,0-.93,3.27,5.73,5.73,0,0,0,.72,3.16A2.53,2.53,0,0,0,126,87.82a4.18,4.18,0,0,0,1.69-.38A6.63,6.63,0,0,0,129.3,86.49Z" transform="translate(-30.08 -31.46)"/><path class="cls-1" d="M141.22,89.26a10,10,0,0,1-1.21.24,8.77,8.77,0,0,1-1.17.09,3.62,3.62,0,0,1-2.72-1,4.33,4.33,0,0,1-.93-3.09V79.33h-1.33V77.67h1.33V74.31h2v3.36h4.06v1.66h-4.06v5.33c0,.61,0,1.09,0,1.43a2.19,2.19,0,0,0,.29,1,1.33,1.33,0,0,0,.63.61,3,3,0,0,0,1.23.2,3.69,3.69,0,0,0,1-.15,5,5,0,0,0,.75-.23h.11Z" transform="translate(-30.08 -31.46)"/><path class="cls-1" d="M147.67,86.38l-2.95,6.86h-1.53L145,86.38Z" transform="translate(-30.08 -31.46)"/><path class="cls-1" d="M172.08,88.21a19.77,19.77,0,0,1-2.79,1,10.56,10.56,0,0,1-2.92.44,10.4,10.4,0,0,1-3.34-.51,6.8,6.8,0,0,1-2.59-1.5,6.72,6.72,0,0,1-1.66-2.54,9.87,9.87,0,0,1-.59-3.56,8,8,0,0,1,2.18-5.9,8.17,8.17,0,0,1,6-2.16,12.21,12.21,0,0,1,2.71.32,14.36,14.36,0,0,1,3,1.08v2.46h-.19c-.22-.17-.53-.39-.94-.66a9.36,9.36,0,0,0-1.21-.68,8.76,8.76,0,0,0-1.64-.54,9.38,9.38,0,0,0-2.08-.21,5.34,5.34,0,0,0-4.14,1.67,7.67,7.67,0,0,0,.07,9.26,5.67,5.67,0,0,0,4.33,1.68,10.54,10.54,0,0,0,2-.2,9.11,9.11,0,0,0,1.75-.51V83.35h-4.18V81.53h6.23Z" transform="translate(-30.08 -31.46)"/><path class="cls-1" d="M185.33,83.72h-8.61A4.9,4.9,0,0,0,177,85.6a3.52,3.52,0,0,0,2.18,2.07,5.1,5.1,0,0,0,1.65.25,6.42,6.42,0,0,0,2.4-.48,5.6,5.6,0,0,0,1.72-.93h.11v2.14a16.22,16.22,0,0,1-2,.7,8.19,8.19,0,0,1-2.18.28,6.27,6.27,0,0,1-4.54-1.57,5.91,5.91,0,0,1-1.63-4.47A6.43,6.43,0,0,1,176.28,79a5.35,5.35,0,0,1,4.12-1.69,4.74,4.74,0,0,1,3.65,1.38,5.57,5.57,0,0,1,1.28,3.92Zm-1.92-1.5a3.4,3.4,0,0,0-.78-2.4A3,3,0,0,0,180.3,79a3.41,3.41,0,0,0-2.52.93,3.61,3.61,0,0,0-1.06,2.32Z" transform="translate(-30.08 -31.46)"/><path class="cls-1" d="M195.61,79.82h-.11a6.6,6.6,0,0,0-.85-.15,7.09,7.09,0,0,0-1,0,4,4,0,0,0-1.76.4,8.05,8.05,0,0,0-1.63,1v8.29h-2V77.67h2V79.4a9.85,9.85,0,0,1,2.07-1.34,4.48,4.48,0,0,1,1.82-.39,6.69,6.69,0,0,1,.75,0l.69.1Z" transform="translate(-30.08 -31.46)"/><path class="cls-1" d="M214.52,89.36h-2V82.71a13.74,13.74,0,0,0-.07-1.46,3.1,3.1,0,0,0-.28-1.12,1.62,1.62,0,0,0-.69-.68,3,3,0,0,0-1.3-.23,3.76,3.76,0,0,0-1.66.41,10.17,10.17,0,0,0-1.65,1.06c0,.16,0,.34,0,.56s0,.42,0,.63v7.48h-2V82.71c0-.52,0-1-.07-1.47a3.08,3.08,0,0,0-.29-1.12,1.54,1.54,0,0,0-.69-.67,3,3,0,0,0-1.3-.23,3.62,3.62,0,0,0-1.62.4,9.19,9.19,0,0,0-1.61,1v8.72h-2V77.67h2V79a8.09,8.09,0,0,1,1.84-1.19,4.42,4.42,0,0,1,1.95-.43,3.79,3.79,0,0,1,2,.5,3.09,3.09,0,0,1,1.24,1.39,9.87,9.87,0,0,1,2.18-1.45,5.17,5.17,0,0,1,2.1-.44,3.37,3.37,0,0,1,2.84,1.17,5.13,5.13,0,0,1,.92,3.25Z" transform="translate(-30.08 -31.46)"/><path class="cls-1" d="M227.39,89.36h-1.95V88.12l-.71.49a4.71,4.71,0,0,1-.86.51,6.2,6.2,0,0,1-1.13.41,6.63,6.63,0,0,1-1.5.16,3.72,3.72,0,0,1-2.68-1,3.54,3.54,0,0,1-1.1-2.67,3.41,3.41,0,0,1,2.2-3.44,8.87,8.87,0,0,1,2.56-.64c1-.11,2.07-.19,3.22-.25v-.3a2.28,2.28,0,0,0-.24-1.11,1.62,1.62,0,0,0-.68-.69,2.8,2.8,0,0,0-1-.33,9.65,9.65,0,0,0-1.23-.08,8.66,8.66,0,0,0-1.72.2,13.63,13.63,0,0,0-2,.59h-.1v-2c.38-.1.94-.21,1.66-.34a12.18,12.18,0,0,1,2.15-.19,10.42,10.42,0,0,1,2.15.2,4.14,4.14,0,0,1,1.58.7,3.1,3.1,0,0,1,1,1.25,4.6,4.6,0,0,1,.34,1.89Zm-1.95-2.87V83.23l-2.12.16a11.08,11.08,0,0,0-1.93.3,3.17,3.17,0,0,0-1.38.75,1.89,1.89,0,0,0-.52,1.4,1.84,1.84,0,0,0,.61,1.51,2.82,2.82,0,0,0,1.85.51,4.44,4.44,0,0,0,1.9-.41A8.51,8.51,0,0,0,225.44,86.49Z" transform="translate(-30.08 -31.46)"/><path class="cls-1" d="M241,89.36h-2V82.71a12.18,12.18,0,0,0-.09-1.52,2.85,2.85,0,0,0-.35-1.1,1.64,1.64,0,0,0-.75-.65,3.13,3.13,0,0,0-1.28-.22,4,4,0,0,0-1.68.4,8.45,8.45,0,0,0-1.69,1v8.72h-2V77.67h2V79a7.78,7.78,0,0,1,1.9-1.19,5,5,0,0,1,2-.43A3.62,3.62,0,0,1,240,78.49a4.87,4.87,0,0,1,1,3.28Z" transform="translate(-30.08 -31.46)"/><path class="cls-1" d="M254.65,77.67l-6.83,16h-2.1l2.18-4.88-4.66-11.13h2.13L249,86.34l3.62-8.67Z" transform="translate(-30.08 -31.46)"/></svg>