<?xml version="1.0" encoding="utf-8"?>
<!-- Generator: Adobe Illustrator 23.0.3, SVG Export Plug-In . SVG Version: 6.00 Build 0)  -->
<svg version="1.1" id="Layer_1" xmlns="http://www.w3.org/2000/svg" xmlns:xlink="http://www.w3.org/1999/xlink" x="0px" y="0px"
	 viewBox="0 0 552.9 166.7" style="enable-background:new 0 0 552.9 166.7;" xml:space="preserve">
<style type="text/css">
	.st0{fill:#0066B3;}
</style>
<title>Logo_Merck KGaA_KO_2</title>
<g>
	<g>
		<path class="st0" d="M60,70.3h-9v-58L32.3,51.8h-5.3L8.4,12.3v58H0V3h12.2l17.9,37.5L47.5,3H60V70.3z"/>
		<path class="st0" d="M119.6,46H82.4c0,3.1,0.5,5.8,1.4,8.1c0.9,2.3,2.2,4.2,3.8,5.7c1.6,1.4,3.4,2.5,5.6,3.3
			c2.2,0.7,4.5,1.1,7.1,1.1c3.4,0,6.9-0.7,10.4-2.1c3.5-1.4,6-2.7,7.4-4h0.5v9.3c-2.9,1.2-5.8,2.2-8.8,3c-3,0.8-6.1,1.2-9.4,1.2
			c-8.4,0-14.9-2.3-19.6-6.8c-4.7-4.5-7-11-7-19.3c0-8.3,2.3-14.8,6.8-19.7c4.5-4.9,10.4-7.3,17.8-7.3c6.8,0,12.1,2,15.8,6
			c3.7,4,5.5,9.6,5.5,17V46z M111.4,39.5c0-4.5-1.2-7.9-3.4-10.3c-2.2-2.4-5.6-3.7-10.1-3.7c-4.5,0-8.2,1.3-10.9,4
			c-2.7,2.7-4.2,6-4.6,10H111.4z"/>
		<path class="st0" d="M164,29.1h-0.4c-1.3-0.3-2.5-0.5-3.7-0.7c-1.2-0.1-2.6-0.2-4.2-0.2c-2.6,0-5.2,0.6-7.6,1.7
			c-2.4,1.2-4.8,2.7-7.1,4.5v35.9h-8.5V19.8h8.5v7.5c3.4-2.7,6.4-4.6,8.9-5.8c2.6-1.1,5.2-1.7,7.9-1.7c1.5,0,2.5,0,3.2,0.1
			c0.7,0.1,1.7,0.2,3,0.4V29.1z"/>
		<path class="st0" d="M209.4,67.2c-2.8,1.4-5.5,2.4-8.1,3.2c-2.5,0.8-5.3,1.1-8.1,1.1c-3.6,0-7-0.5-10-1.6c-3-1.1-5.6-2.7-7.8-4.9
			c-2.2-2.2-3.9-4.9-5.1-8.2c-1.2-3.3-1.8-7.2-1.8-11.6c0-8.3,2.3-14.7,6.8-19.4c4.5-4.7,10.5-7.1,18-7.1c2.9,0,5.7,0.4,8.5,1.2
			c2.8,0.8,5.3,1.8,7.7,3v9.5h-0.5c-2.6-2-5.3-3.6-8-4.7c-2.8-1.1-5.4-1.6-8.1-1.6c-4.8,0-8.6,1.6-11.4,4.9c-2.8,3.2-4.2,8-4.2,14.3
			c0,6.1,1.4,10.8,4.1,14c2.7,3.3,6.6,4.9,11.5,4.9c1.7,0,3.5-0.2,5.2-0.7c1.8-0.5,3.4-1,4.8-1.8c1.2-0.6,2.4-1.3,3.5-2
			c1.1-0.7,1.9-1.3,2.6-1.8h0.5V67.2z"/>
		<path class="st0" d="M266.1,70.3h-11.2l-20.3-22.1l-5.5,5.2v16.9h-8.5V0h8.5v45.1l24.5-25.3h10.7l-23.5,23.3L266.1,70.3z"/>
		<path class="st0" d="M362.4,70.3h-11.6l-26.6-30l-6.7,7.1v22.8h-9V3h9v35.1L350.2,3H361l-30.1,31.6L362.4,70.3z"/>
		<path class="st0" d="M428.6,65.4c-3.7,1.7-7.7,3.2-12,4.4c-4.4,1.3-8.6,1.9-12.6,1.9c-5.2,0-10.1-0.7-14.4-2.2
			c-4.4-1.4-8.1-3.6-11.2-6.5c-3.1-2.9-5.5-6.6-7.2-11c-1.7-4.4-2.5-9.5-2.5-15.4c0-10.8,3.1-19.3,9.4-25.5
			c6.3-6.2,14.9-9.3,25.9-9.3c3.8,0,7.7,0.5,11.7,1.4c4,0.9,8.3,2.5,12.9,4.7v10.6h-0.8c-0.9-0.7-2.3-1.7-4.1-2.8
			c-1.8-1.2-3.5-2.2-5.2-2.9c-2.1-0.9-4.4-1.7-7.1-2.3c-2.6-0.6-5.6-0.9-9-0.9c-7.5,0-13.5,2.4-17.9,7.3c-4.4,4.8-6.6,11.4-6.6,19.6
			c0,8.7,2.3,15.5,6.9,20.3c4.6,4.8,10.8,7.3,18.7,7.3c2.9,0,5.8-0.3,8.7-0.9c2.9-0.6,5.4-1.3,7.6-2.2V44.4h-18v-7.9h26.9V65.4z"/>
		<path class="st0" d="M482.8,70.3h-8.5V65c-0.8,0.5-1.8,1.2-3,2.1c-1.3,0.9-2.5,1.7-3.7,2.2c-1.4,0.7-3,1.3-4.9,1.7
			c-1.8,0.5-4,0.7-6.5,0.7c-4.6,0-8.4-1.5-11.6-4.5c-3.2-3-4.7-6.9-4.7-11.5c0-3.8,0.8-6.9,2.5-9.3c1.6-2.4,4-4.2,7-5.6
			c3.1-1.4,6.8-2.3,11.1-2.8c4.3-0.5,8.9-0.8,13.9-1.1v-1.3c0-1.9-0.3-3.5-1-4.8c-0.7-1.3-1.6-2.3-2.9-3c-1.2-0.7-2.6-1.2-4.3-1.4
			c-1.7-0.2-3.5-0.4-5.3-0.4c-2.2,0-4.7,0.3-7.5,0.9c-2.7,0.6-5.6,1.4-8.5,2.6h-0.5v-8.6c1.7-0.5,4.1-1,7.2-1.5
			c3.1-0.5,6.2-0.8,9.3-0.8c3.6,0,6.7,0.3,9.3,0.9c2.6,0.6,4.9,1.6,6.8,3c1.9,1.4,3.3,3.2,4.3,5.4c1,2.2,1.5,4.9,1.5,8.2V70.3z
			 M474.3,57.9V43.9c-2.6,0.2-5.6,0.4-9.2,0.7c-3.5,0.3-6.3,0.7-8.3,1.3c-2.4,0.7-4.4,1.8-5.9,3.2c-1.5,1.5-2.3,3.5-2.3,6
			c0,2.9,0.9,5.1,2.6,6.5c1.8,1.5,4.4,2.2,8,2.2c3,0,5.7-0.6,8.2-1.7C469.9,60.9,472.2,59.5,474.3,57.9z"/>
		<path class="st0" d="M552.9,70.3h-9.5l-6.6-18.8h-29.1l-6.6,18.8H492L516.5,3h11.9L552.9,70.3z M534,43.9l-11.8-33l-11.8,33H534z"
			/>
	</g>
	<g>
		<path class="st0" d="M32.4,123.2c0,3.5-0.8,6.6-2.3,9.5c-1.5,2.8-3.5,5-6.1,6.6c-1.7,1.1-3.7,1.9-5.8,2.3c-2.2,0.5-5,0.7-8.5,0.7
			H0V104h9.6c3.7,0,6.7,0.3,8.9,0.8c2.2,0.5,4.1,1.3,5.6,2.2c2.6,1.6,4.6,3.8,6.1,6.5C31.6,116.3,32.4,119.5,32.4,123.2z M27,123.1
			c0-3-0.5-5.5-1.6-7.6c-1-2.1-2.6-3.7-4.7-4.9c-1.5-0.9-3.1-1.5-4.8-1.8c-1.7-0.3-3.7-0.5-6.1-0.5H5.1v29.6h4.8
			c2.5,0,4.6-0.2,6.4-0.5c1.8-0.4,3.5-1,5-2c1.9-1.2,3.3-2.8,4.3-4.8C26.6,128.6,27,126.1,27,123.1z"/>
		<path class="st0" d="M62.5,142.3h-4.8v-3.1c-0.4,0.3-1,0.7-1.7,1.2c-0.7,0.5-1.4,0.9-2.1,1.2c-0.8,0.4-1.7,0.7-2.8,1
			c-1,0.3-2.3,0.4-3.7,0.4c-2.6,0-4.8-0.9-6.6-2.6c-1.8-1.7-2.7-3.9-2.7-6.6c0-2.2,0.5-3.9,1.4-5.3c0.9-1.4,2.3-2.4,4-3.2
			c1.8-0.8,3.9-1.3,6.3-1.6c2.5-0.3,5.1-0.5,7.9-0.6v-0.7c0-1.1-0.2-2-0.6-2.7c-0.4-0.7-0.9-1.3-1.7-1.7c-0.7-0.4-1.5-0.7-2.5-0.8
			c-1-0.1-2-0.2-3-0.2c-1.3,0-2.7,0.2-4.2,0.5c-1.6,0.3-3.2,0.8-4.8,1.4h-0.3v-4.9c0.9-0.3,2.3-0.5,4.1-0.8c1.8-0.3,3.5-0.5,5.3-0.5
			c2,0,3.8,0.2,5.3,0.5c1.5,0.3,2.8,0.9,3.9,1.7c1.1,0.8,1.9,1.8,2.5,3.1c0.6,1.3,0.8,2.8,0.8,4.7V142.3z M57.7,135.2v-8
			c-1.5,0.1-3.2,0.2-5.2,0.4c-2,0.2-3.6,0.4-4.7,0.7c-1.4,0.4-2.5,1-3.4,1.8c-0.9,0.8-1.3,2-1.3,3.4c0,1.7,0.5,2.9,1.5,3.7
			c1,0.8,2.5,1.2,4.6,1.2c1.7,0,3.2-0.3,4.7-1C55.2,137,56.5,136.2,57.7,135.2z"/>
		<path class="st0" d="M89.8,118.8h-0.3c-0.7-0.2-1.4-0.3-2.1-0.4c-0.7-0.1-1.5-0.1-2.4-0.1c-1.5,0-2.9,0.3-4.3,1
			c-1.4,0.7-2.7,1.5-4,2.6v20.4h-4.8v-28.7h4.8v4.2c1.9-1.5,3.6-2.6,5.1-3.3c1.5-0.6,3-1,4.5-1c0.8,0,1.4,0,1.8,0.1
			c0.4,0,0.9,0.1,1.7,0.2V118.8z"/>
		<path class="st0" d="M136.2,142.3h-4.8v-16.4c0-1.2-0.1-2.4-0.2-3.6c-0.1-1.2-0.3-2.1-0.7-2.8c-0.4-0.7-1-1.3-1.7-1.7
			c-0.7-0.4-1.8-0.6-3.2-0.6c-1.4,0-2.7,0.3-4.1,1c-1.4,0.7-2.7,1.5-4.1,2.6c0,0.4,0.1,0.9,0.1,1.4c0,0.5,0,1,0,1.6v18.4h-4.8v-16.4
			c0-1.3-0.1-2.5-0.2-3.6c-0.1-1.1-0.3-2.1-0.7-2.7c-0.4-0.7-1-1.3-1.7-1.7c-0.7-0.4-1.8-0.6-3.2-0.6c-1.3,0-2.6,0.3-4,1
			c-1.3,0.7-2.7,1.5-4,2.5v21.5h-4.8v-28.7h4.8v3.2c1.5-1.2,3-2.2,4.5-2.9c1.5-0.7,3.1-1,4.8-1c2,0,3.6,0.4,5,1.2
			c1.4,0.8,2.4,2,3,3.4c2-1.7,3.7-2.8,5.4-3.6c1.6-0.7,3.3-1.1,5.2-1.1c3.2,0,5.5,1,7,2.9c1.5,1.9,2.3,4.6,2.3,8V142.3z"/>
		<path class="st0" d="M166.1,134c0,2.6-1.1,4.8-3.3,6.5c-2.2,1.7-5.1,2.5-8.9,2.5c-2.1,0-4.1-0.3-5.8-0.8c-1.8-0.5-3.3-1.1-4.5-1.7
			v-5.4h0.3c1.5,1.2,3.2,2.1,5.1,2.7c1.9,0.7,3.7,1,5.4,1c2.1,0,3.8-0.3,5-1c1.2-0.7,1.8-1.8,1.8-3.2c0-1.1-0.3-2-1-2.6
			c-0.6-0.6-1.9-1.1-3.8-1.5c-0.7-0.2-1.6-0.3-2.7-0.5c-1.1-0.2-2.1-0.4-3-0.7c-2.5-0.7-4.3-1.7-5.4-2.9c-1.1-1.3-1.6-2.9-1.6-4.8
			c0-1.2,0.2-2.3,0.7-3.3c0.5-1,1.2-2,2.2-2.8c1-0.8,2.2-1.4,3.7-1.9c1.5-0.5,3.1-0.7,5-0.7c1.7,0,3.4,0.2,5.2,0.6
			c1.8,0.4,3.2,0.9,4.4,1.5v5.2h-0.3c-1.2-0.9-2.7-1.7-4.5-2.3c-1.8-0.6-3.5-0.9-5.2-0.9c-1.8,0-3.3,0.3-4.5,1
			c-1.2,0.7-1.8,1.7-1.8,3c0,1.2,0.4,2.1,1.1,2.7c0.7,0.6,1.9,1.1,3.5,1.5c0.9,0.2,1.9,0.4,3,0.6c1.1,0.2,2,0.4,2.8,0.6
			c2.2,0.5,4,1.4,5.2,2.6C165.5,130.3,166.1,131.9,166.1,134z"/>
		<path class="st0" d="M187.9,142c-0.9,0.2-1.9,0.4-3,0.6c-1.1,0.2-2,0.2-2.9,0.2c-2.9,0-5.2-0.8-6.7-2.4c-1.5-1.6-2.3-4.1-2.3-7.6
			v-15.3h-3.3v-4.1h3.3v-8.2h4.8v8.2h10v4.1h-10v13.1c0,1.5,0,2.7,0.1,3.5c0.1,0.8,0.3,1.6,0.7,2.4c0.4,0.7,0.9,1.2,1.6,1.5
			c0.7,0.3,1.7,0.5,3,0.5c0.8,0,1.6-0.1,2.5-0.4c0.9-0.2,1.5-0.4,1.9-0.6h0.3V142z"/>
		<path class="st0" d="M216.1,142.3h-4.8v-3.1c-0.4,0.3-1,0.7-1.7,1.2c-0.7,0.5-1.4,0.9-2.1,1.2c-0.8,0.4-1.7,0.7-2.8,1
			c-1,0.3-2.3,0.4-3.7,0.4c-2.6,0-4.8-0.9-6.6-2.6c-1.8-1.7-2.7-3.9-2.7-6.6c0-2.2,0.5-3.9,1.4-5.3c0.9-1.4,2.3-2.4,4-3.2
			c1.8-0.8,3.9-1.3,6.3-1.6c2.5-0.3,5.1-0.5,7.9-0.6v-0.7c0-1.1-0.2-2-0.6-2.7c-0.4-0.7-0.9-1.3-1.7-1.7c-0.7-0.4-1.5-0.7-2.5-0.8
			c-1-0.1-2-0.2-3-0.2c-1.3,0-2.7,0.2-4.2,0.5c-1.6,0.3-3.2,0.8-4.8,1.4h-0.3v-4.9c0.9-0.3,2.3-0.5,4.1-0.8c1.8-0.3,3.5-0.5,5.3-0.5
			c2,0,3.8,0.2,5.3,0.5c1.5,0.3,2.8,0.9,3.9,1.7c1.1,0.8,1.9,1.8,2.5,3.1c0.6,1.3,0.8,2.8,0.8,4.7V142.3z M211.3,135.2v-8
			c-1.5,0.1-3.2,0.2-5.2,0.4c-2,0.2-3.6,0.4-4.7,0.7c-1.4,0.4-2.5,1-3.4,1.8c-0.9,0.8-1.3,2-1.3,3.4c0,1.7,0.5,2.9,1.5,3.7
			c1,0.8,2.5,1.2,4.6,1.2c1.7,0,3.2-0.3,4.7-1C208.8,137,210.1,136.2,211.3,135.2z"/>
		<path class="st0" d="M248.7,142.3h-4.8v-3c-1.4,1.2-2.8,2.1-4.3,2.8c-1.5,0.7-3.1,1-4.9,1c-3.4,0-6.1-1.3-8.2-4c-2-2.6-3-6.3-3-11
			c0-2.4,0.3-4.6,1-6.5c0.7-1.9,1.6-3.5,2.8-4.9c1.2-1.3,2.5-2.3,4.1-3c1.6-0.7,3.2-1,4.8-1c1.5,0,2.8,0.2,4,0.5
			c1.2,0.3,2.4,0.8,3.7,1.5v-12.4h4.8V142.3z M243.9,135.2v-16.5c-1.3-0.6-2.5-1-3.5-1.2c-1-0.2-2.2-0.3-3.4-0.3
			c-2.7,0-4.8,0.9-6.3,2.8s-2.3,4.6-2.3,8c0,3.4,0.6,6,1.8,7.8c1.2,1.8,3,2.7,5.6,2.7c1.4,0,2.8-0.3,4.2-0.9
			C241.3,137,242.6,136.2,243.9,135.2z"/>
		<path class="st0" d="M273.1,142c-0.9,0.2-1.9,0.4-3,0.6c-1.1,0.2-2,0.2-2.9,0.2c-2.9,0-5.2-0.8-6.7-2.4c-1.5-1.6-2.3-4.1-2.3-7.6
			v-15.3H255v-4.1h3.3v-8.2h4.8v8.2h10v4.1h-10v13.1c0,1.5,0,2.7,0.1,3.5c0.1,0.8,0.3,1.6,0.7,2.4c0.4,0.7,0.9,1.2,1.6,1.5
			c0.7,0.3,1.7,0.5,3,0.5c0.8,0,1.6-0.1,2.5-0.4c0.9-0.2,1.5-0.4,1.9-0.6h0.3V142z"/>
		<path class="st0" d="M289,135l-7.3,16.8H278l4.5-16.8H289z"/>
		<path class="st0" d="M349,139.5c-2.1,1-4.4,1.8-6.9,2.5c-2.5,0.7-4.9,1.1-7.2,1.1c-3,0-5.7-0.4-8.2-1.2c-2.5-0.8-4.6-2.1-6.4-3.7
			c-1.8-1.7-3.1-3.7-4.1-6.2c-1-2.5-1.4-5.4-1.4-8.8c0-6.1,1.8-11,5.4-14.5c3.6-3.5,8.5-5.3,14.7-5.3c2.2,0,4.4,0.3,6.7,0.8
			c2.3,0.5,4.7,1.4,7.3,2.7v6h-0.5c-0.5-0.4-1.3-1-2.3-1.6c-1-0.7-2-1.2-3-1.7c-1.2-0.5-2.5-1-4-1.3c-1.5-0.4-3.2-0.5-5.1-0.5
			c-4.3,0-7.7,1.4-10.2,4.1c-2.5,2.8-3.7,6.5-3.7,11.2c0,5,1.3,8.8,3.9,11.6c2.6,2.8,6.2,4.1,10.6,4.1c1.6,0,3.3-0.2,4.9-0.5
			c1.6-0.3,3.1-0.7,4.3-1.3v-9.4h-10.3V123H349V139.5z"/>
		<path class="st0" d="M381.5,128.4h-21.2c0,1.8,0.3,3.3,0.8,4.6c0.5,1.3,1.3,2.4,2.2,3.2c0.9,0.8,2,1.4,3.2,1.9
			c1.2,0.4,2.6,0.6,4,0.6c2,0,3.9-0.4,5.9-1.2c2-0.8,3.4-1.5,4.2-2.3h0.3v5.3c-1.6,0.7-3.3,1.3-5,1.7c-1.7,0.5-3.5,0.7-5.3,0.7
			c-4.8,0-8.5-1.3-11.2-3.9c-2.7-2.6-4-6.2-4-11c0-4.7,1.3-8.4,3.8-11.2c2.6-2.8,5.9-4.1,10.1-4.1c3.9,0,6.9,1.1,9,3.4
			c2.1,2.3,3.2,5.5,3.2,9.6V128.4z M376.8,124.7c0-2.5-0.7-4.5-1.9-5.9c-1.3-1.4-3.2-2.1-5.7-2.1c-2.6,0-4.7,0.8-6.2,2.3
			c-1.5,1.5-2.4,3.4-2.6,5.7H376.8z"/>
		<path class="st0" d="M406.8,118.8h-0.3c-0.7-0.2-1.4-0.3-2.1-0.4c-0.7-0.1-1.5-0.1-2.4-0.1c-1.5,0-2.9,0.3-4.3,1
			c-1.4,0.7-2.7,1.5-4,2.6v20.4h-4.8v-28.7h4.8v4.2c1.9-1.5,3.6-2.6,5.1-3.3c1.5-0.6,3-1,4.5-1c0.8,0,1.4,0,1.8,0.1
			c0.4,0,0.9,0.1,1.7,0.2V118.8z"/>
		<path class="st0" d="M453.3,142.3h-4.8v-16.4c0-1.2-0.1-2.4-0.2-3.6c-0.1-1.2-0.3-2.1-0.7-2.8c-0.4-0.7-1-1.3-1.7-1.7
			c-0.7-0.4-1.8-0.6-3.2-0.6c-1.4,0-2.7,0.3-4.1,1c-1.4,0.7-2.7,1.5-4.1,2.6c0,0.4,0.1,0.9,0.1,1.4c0,0.5,0,1,0,1.6v18.4h-4.8v-16.4
			c0-1.3-0.1-2.5-0.2-3.6c-0.1-1.1-0.3-2.1-0.7-2.7c-0.4-0.7-1-1.3-1.7-1.7c-0.7-0.4-1.8-0.6-3.2-0.6c-1.3,0-2.6,0.3-4,1
			c-1.3,0.7-2.7,1.5-4,2.5v21.5h-4.8v-28.7h4.8v3.2c1.5-1.2,3-2.2,4.5-2.9c1.5-0.7,3.1-1,4.8-1c2,0,3.6,0.4,5,1.2
			c1.4,0.8,2.4,2,3,3.4c2-1.7,3.7-2.8,5.3-3.6c1.6-0.7,3.3-1.1,5.2-1.1c3.2,0,5.5,1,7,2.9c1.5,1.9,2.3,4.6,2.3,8V142.3z"/>
		<path class="st0" d="M484.9,142.3h-4.8v-3.1c-0.4,0.3-1,0.7-1.7,1.2c-0.7,0.5-1.4,0.9-2.1,1.2c-0.8,0.4-1.7,0.7-2.8,1
			c-1,0.3-2.3,0.4-3.7,0.4c-2.6,0-4.8-0.9-6.6-2.6c-1.8-1.7-2.7-3.9-2.7-6.6c0-2.2,0.5-3.9,1.4-5.3c0.9-1.4,2.3-2.4,4-3.2
			c1.7-0.8,3.8-1.3,6.3-1.6c2.4-0.3,5.1-0.5,7.9-0.6v-0.7c0-1.1-0.2-2-0.6-2.7c-0.4-0.7-0.9-1.3-1.7-1.7c-0.7-0.4-1.5-0.7-2.5-0.8
			c-1-0.1-2-0.2-3-0.2c-1.3,0-2.7,0.2-4.2,0.5c-1.6,0.3-3.2,0.8-4.8,1.4H463v-4.9c0.9-0.3,2.3-0.5,4.1-0.8c1.8-0.3,3.5-0.5,5.3-0.5
			c2,0,3.8,0.2,5.3,0.5c1.5,0.3,2.8,0.9,3.9,1.7c1.1,0.8,1.9,1.8,2.5,3.1c0.6,1.3,0.8,2.8,0.8,4.7V142.3z M480.1,135.2v-8
			c-1.5,0.1-3.2,0.2-5.2,0.4c-2,0.2-3.6,0.4-4.7,0.7c-1.4,0.4-2.5,1-3.4,1.8c-0.9,0.8-1.3,2-1.3,3.4c0,1.7,0.5,2.9,1.5,3.7
			c1,0.8,2.5,1.2,4.6,1.2c1.7,0,3.2-0.3,4.7-1C477.6,137,478.9,136.2,480.1,135.2z"/>
		<path class="st0" d="M518.2,142.3h-4.8v-16.4c0-1.3-0.1-2.6-0.2-3.7c-0.2-1.2-0.4-2.1-0.8-2.7c-0.4-0.7-1-1.3-1.9-1.6
			c-0.8-0.4-1.8-0.5-3.1-0.5c-1.3,0-2.7,0.3-4.1,1c-1.4,0.7-2.8,1.5-4.1,2.5v21.5h-4.8v-28.7h4.8v3.2c1.5-1.2,3.1-2.2,4.7-2.9
			c1.6-0.7,3.3-1,5-1c3.1,0,5.5,0.9,7.1,2.8c1.6,1.9,2.4,4.6,2.4,8.1V142.3z"/>
		<path class="st0" d="M551.9,113.6l-16.8,39.3h-5.2l5.3-12l-11.4-27.3h5.2l8.8,21.3l8.9-21.3H551.9z"/>
	</g>
</g>
</svg>
